<svg xmlns="http://www.w3.org/2000/svg" xmlns:xlink="http://www.w3.org/1999/xlink" width="500" zoomAndPan="magnify" viewBox="0 0 375 374.999991" height="500" preserveAspectRatio="xMidYMid meet" version="1.0"><defs><clipPath id="8ee97380fe"><path d="M 187.5 0 C 83.945312 0 0 83.945312 0 187.5 C 0 291.054688 83.945312 375 187.5 375 C 291.054688 375 375 291.054688 375 187.5 C 375 83.945312 291.054688 0 187.5 0 Z M 187.5 0 " clip-rule="nonzero"/></clipPath><clipPath id="4e6eb8021c"><path d="M 40.5 40 L 334.5 40 L 334.5 335 L 40.5 335 Z M 40.5 40 " clip-rule="nonzero"/></clipPath></defs><g clip-path="url(#8ee97380fe)"><rect x="-37.5" width="450" fill="#f5dee4" y="-37.499999" height="449.999989" fill-opacity="1"/></g><g clip-path="url(#4e6eb8021c)"><path fill="#000000" d="M 187.5 40.492188 C 106.3125 40.492188 40.5 106.253906 40.5 187.375 C 40.5 268.496094 106.3125 334.257812 187.5 334.257812 C 268.6875 334.257812 334.5 268.496094 334.5 187.375 C 334.5 106.253906 268.6875 40.492188 187.5 40.492188 Z M 65 187.375 C 65 119.773438 119.84375 64.972656 187.5 64.972656 C 255.15625 64.972656 310 119.773438 310 187.375 C 310 242.460938 273.582031 289.046875 223.492188 304.40625 C 224.859375 279.667969 224.390625 264.34375 222.082031 258.4375 C 219.648438 252.199219 217.664062 249.644531 216.472656 248.109375 C 215.691406 247.105469 215.253906 246.542969 215.253906 245.667969 C 215.253906 244.199219 216.289062 243.136719 218.359375 242.476562 C 236.40625 238.488281 248.511719 227.40625 254.667969 209.226562 C 263.199219 184.035156 251.023438 165.71875 246.09375 158.304688 C 245.6875 157.695312 245.332031 157.15625 245.039062 156.695312 C 241.207031 150.652344 246.226562 135.945312 252.21875 124.175781 C 231.835938 120.089844 224.054688 129.554688 219.589844 134.980469 C 217.765625 137.195312 216.496094 138.738281 215.148438 138.410156 C 213.945312 138.117188 212.648438 137.550781 211.09375 136.867188 C 206.644531 134.914062 200.078125 132.027344 187.5 132.027344 C 171.902344 132.027344 161.566406 137.472656 159.984375 138.304688 C 159.84375 138.378906 159.773438 138.410156 159.773438 138.410156 C 151.574219 126.992188 139.929688 122.246094 124.839844 124.175781 C 128.996094 140.769531 129.308594 151.609375 125.777344 156.695312 C 120.480469 164.324219 110.550781 182.074219 118.257812 209.226562 C 125.964844 236.378906 154.027344 242.476562 159.371094 242.476562 L 159.40625 242.484375 C 159.828125 242.574219 163.761719 243.421875 162.582031 246.742188 C 162.347656 247.625 162.195312 248.824219 162.019531 250.179688 C 161.464844 254.527344 160.707031 260.433594 156.535156 262.355469 C 151.0625 264.875 138.992188 266.25 133.941406 263.105469 C 132.261719 262.058594 131.050781 259.867188 129.597656 257.226562 C 126.683594 251.945312 122.78125 244.867188 112.105469 241.574219 C 96.101562 236.636719 97.105469 243.164062 101.097656 244.769531 C 101.980469 245.121094 103.144531 245.449219 104.476562 245.828125 C 109.1875 247.160156 115.96875 249.078125 119.445312 254.667969 C 120.464844 256.304688 121.511719 258.101562 122.582031 259.933594 C 126.199219 266.121094 130.070312 272.753906 133.941406 275.296875 C 137.289062 277.496094 145.304688 278.375 157.996094 277.9375 C 157.445312 289.90625 157.148438 299.253906 157.113281 305.980469 C 104.15625 292.476562 65 244.496094 65 187.375 Z M 65 187.375 " fill-opacity="0.85" fill-rule="evenodd"/></g></svg>