<svg xmlns="http://www.w3.org/2000/svg" xmlns:xlink="http://www.w3.org/1999/xlink" width="500" zoomAndPan="magnify" viewBox="0 0 375 374.999991" height="500" preserveAspectRatio="xMidYMid meet" version="1.0"><defs><clipPath id="aabe8ae7f0"><path d="M 187.5 0 C 83.945312 0 0 83.945312 0 187.5 C 0 291.054688 83.945312 375 187.5 375 C 291.054688 375 375 291.054688 375 187.5 C 375 83.945312 291.054688 0 187.5 0 Z M 187.5 0 " clip-rule="nonzero"/></clipPath><clipPath id="a86756cc95"><path d="M 58.480469 58.480469 L 316.480469 58.480469 L 316.480469 316.480469 L 58.480469 316.480469 Z M 58.480469 58.480469 " clip-rule="nonzero"/></clipPath></defs><g clip-path="url(#aabe8ae7f0)"><rect x="-37.5" width="450" fill="#f5dee4" y="-37.499999" height="449.999989" fill-opacity="1"/></g><g clip-path="url(#a86756cc95)"><path fill="#000000" d="M 278.128906 316.480469 L 96.832031 316.480469 C 75.6875 316.480469 58.480469 299.277344 58.480469 278.128906 L 58.480469 96.832031 C 58.480469 75.6875 75.6875 58.480469 96.832031 58.480469 L 278.128906 58.480469 C 299.277344 58.480469 316.480469 75.6875 316.480469 96.832031 L 316.480469 278.128906 C 316.480469 299.277344 299.277344 316.480469 278.128906 316.480469 Z M 96.832031 72.429688 C 83.375 72.429688 72.429688 83.375 72.429688 96.832031 L 72.429688 278.128906 C 72.429688 291.585938 83.375 302.535156 96.832031 302.535156 L 278.128906 302.535156 C 291.585938 302.535156 302.535156 291.585938 302.535156 278.128906 L 302.535156 96.832031 C 302.535156 83.375 291.585938 72.429688 278.128906 72.429688 Z M 96.832031 72.429688 " fill-opacity="1" fill-rule="nonzero"/></g><path fill="#000000" d="M 187.480469 260.699219 C 147.109375 260.699219 114.265625 227.851562 114.265625 187.480469 C 114.265625 147.109375 147.109375 114.265625 187.480469 114.265625 C 227.851562 114.265625 260.699219 147.109375 260.699219 187.480469 C 260.699219 227.851562 227.851562 260.699219 187.480469 260.699219 Z M 187.480469 128.210938 C 154.800781 128.210938 128.210938 154.800781 128.210938 187.480469 C 128.210938 220.164062 154.800781 246.753906 187.480469 246.753906 C 220.164062 246.753906 246.753906 220.164062 246.753906 187.480469 C 246.753906 154.800781 220.164062 128.210938 187.480469 128.210938 Z M 187.480469 128.210938 " fill-opacity="1" fill-rule="nonzero"/><path fill="#000000" d="M 264.183594 135.183594 C 250.726562 135.183594 239.777344 124.238281 239.777344 110.777344 C 239.777344 97.320312 250.726562 86.375 264.183594 86.375 C 277.640625 86.375 288.589844 97.320312 288.589844 110.777344 C 288.589844 124.238281 277.640625 135.183594 264.183594 135.183594 Z M 264.183594 100.320312 C 258.417969 100.320312 253.726562 105.011719 253.726562 110.777344 C 253.726562 116.546875 258.417969 121.238281 264.183594 121.238281 C 269.953125 121.238281 274.644531 116.546875 274.644531 110.777344 C 274.644531 105.011719 269.953125 100.320312 264.183594 100.320312 Z M 264.183594 100.320312 " fill-opacity="1" fill-rule="nonzero"/></svg>