<svg xmlns="http://www.w3.org/2000/svg" xmlns:xlink="http://www.w3.org/1999/xlink" width="591" zoomAndPan="magnify" viewBox="0 0 443.25 178.499995" height="238" preserveAspectRatio="xMidYMid meet" version="1.0"><defs><g/></defs><g fill="#f1efe7" fill-opacity="1"><g transform="translate(34.069642, 113.919461)"><g><path d="M 59.5625 -47.296875 L 37.0625 -24.703125 L 61.78125 0 L 40.75 0 L 21.859375 -18.90625 L 21.859375 0 L 5.53125 0 L 5.53125 -79.296875 L 21.859375 -79.296875 L 21.859375 -30.796875 L 38.359375 -47.296875 Z M 59.5625 -47.296875 "/></g></g></g><g fill="#f1efe7" fill-opacity="1"><g transform="translate(84.948316, 113.919461)"><g><path d="M 53.390625 -21.390625 L 19.09375 -21.390625 C 19.09375 -18.066406 20.164062 -15.609375 22.3125 -14.015625 C 24.46875 -12.421875 26.804688 -11.625 29.328125 -11.625 C 31.960938 -11.625 34.046875 -11.972656 35.578125 -12.671875 C 37.117188 -13.378906 38.875 -14.78125 40.84375 -16.875 L 52.640625 -10.96875 C 47.722656 -2.726562 39.550781 1.390625 28.125 1.390625 C 20.988281 1.390625 14.867188 -1.050781 9.765625 -5.9375 C 4.671875 -10.832031 2.125 -16.722656 2.125 -23.609375 C 2.125 -30.492188 4.671875 -36.394531 9.765625 -41.3125 C 14.867188 -46.226562 20.988281 -48.6875 28.125 -48.6875 C 35.625 -48.6875 41.722656 -46.519531 46.421875 -42.1875 C 51.128906 -37.851562 53.484375 -31.660156 53.484375 -23.609375 C 53.484375 -22.492188 53.453125 -21.753906 53.390625 -21.390625 Z M 19.546875 -30.421875 L 37.53125 -30.421875 C 37.15625 -32.878906 36.179688 -34.769531 34.609375 -36.09375 C 33.046875 -37.414062 31.035156 -38.078125 28.578125 -38.078125 C 25.878906 -38.078125 23.726562 -37.367188 22.125 -35.953125 C 20.53125 -34.546875 19.671875 -32.703125 19.546875 -30.421875 Z M 19.546875 -30.421875 "/></g></g></g><g fill="#f1efe7" fill-opacity="1"><g transform="translate(131.863418, 113.919461)"><g><path d="M 8.75 -5.84375 C 4.332031 -10.675781 2.125 -16.59375 2.125 -23.59375 C 2.125 -30.601562 4.332031 -36.535156 8.75 -41.390625 C 13.175781 -46.253906 18.800781 -48.6875 25.625 -48.6875 C 31.894531 -48.6875 37.0625 -46.71875 41.125 -42.78125 L 41.125 -79.296875 L 57.4375 -79.296875 L 57.4375 0 L 41.3125 0 L 41.3125 -5.34375 L 41.125 -5.34375 C 37.0625 -0.851562 31.894531 1.390625 25.625 1.390625 C 18.800781 1.390625 13.175781 -1.019531 8.75 -5.84375 Z M 22.625 -31.625 C 20.507812 -29.53125 19.453125 -26.851562 19.453125 -23.59375 C 19.453125 -20.34375 20.46875 -17.6875 22.5 -15.625 C 24.53125 -13.570312 27.203125 -12.546875 30.515625 -12.546875 C 33.710938 -12.546875 36.335938 -13.585938 38.390625 -15.671875 C 40.453125 -17.765625 41.484375 -20.410156 41.484375 -23.609375 C 41.484375 -26.859375 40.421875 -29.53125 38.296875 -31.625 C 36.179688 -33.71875 33.585938 -34.765625 30.515625 -34.765625 C 27.378906 -34.765625 24.75 -33.71875 22.625 -31.625 Z M 22.625 -31.625 "/></g></g></g><g fill="#f1efe7" fill-opacity="1"><g transform="translate(186.152612, 113.919461)"><g><path d="M 30.703125 -35.3125 C 27.628906 -35.3125 24.984375 -34.171875 22.765625 -31.890625 C 20.554688 -29.617188 19.453125 -26.890625 19.453125 -23.703125 C 19.453125 -20.441406 20.554688 -17.671875 22.765625 -15.390625 C 24.984375 -13.117188 27.628906 -11.984375 30.703125 -11.984375 C 32.179688 -11.984375 33.578125 -12.164062 34.890625 -12.53125 C 36.210938 -12.90625 37.179688 -13.273438 37.796875 -13.640625 L 38.640625 -14.203125 L 44.171875 -2.859375 C 43.734375 -2.546875 43.128906 -2.160156 42.359375 -1.703125 C 41.597656 -1.242188 39.847656 -0.613281 37.109375 0.1875 C 34.378906 0.988281 31.445312 1.390625 28.3125 1.390625 C 21.363281 1.390625 15.257812 -1.050781 10 -5.9375 C 4.75 -10.832031 2.125 -16.691406 2.125 -23.515625 C 2.125 -30.398438 4.75 -36.316406 10 -41.265625 C 15.257812 -46.210938 21.363281 -48.6875 28.3125 -48.6875 C 31.445312 -48.6875 34.332031 -48.316406 36.96875 -47.578125 C 39.613281 -46.835938 41.488281 -46.097656 42.59375 -45.359375 L 44.171875 -44.25 L 38.640625 -33.09375 C 36.609375 -34.570312 33.960938 -35.3125 30.703125 -35.3125 Z M 30.703125 -35.3125 "/></g></g></g><g fill="#f1efe7" fill-opacity="1"><g transform="translate(222.743996, 113.919461)"><g><path d="M 10 -5.609375 C 4.75 -10.285156 2.125 -16.28125 2.125 -23.59375 C 2.125 -30.914062 4.859375 -36.925781 10.328125 -41.625 C 15.796875 -46.332031 22.554688 -48.6875 30.609375 -48.6875 C 38.535156 -48.6875 45.21875 -46.316406 50.65625 -41.578125 C 56.101562 -36.847656 58.828125 -30.851562 58.828125 -23.59375 C 58.828125 -16.34375 56.164062 -10.363281 50.84375 -5.65625 C 45.53125 -0.957031 38.785156 1.390625 30.609375 1.390625 C 22.128906 1.390625 15.257812 -0.941406 10 -5.609375 Z M 22.625 -31.625 C 20.507812 -29.53125 19.453125 -26.851562 19.453125 -23.59375 C 19.453125 -20.34375 20.46875 -17.6875 22.5 -15.625 C 24.53125 -13.570312 27.203125 -12.546875 30.515625 -12.546875 C 33.710938 -12.546875 36.335938 -13.585938 38.390625 -15.671875 C 40.453125 -17.765625 41.484375 -20.410156 41.484375 -23.609375 C 41.484375 -26.859375 40.421875 -29.53125 38.296875 -31.625 C 36.179688 -33.71875 33.585938 -34.765625 30.515625 -34.765625 C 27.378906 -34.765625 24.75 -33.71875 22.625 -31.625 Z M 22.625 -31.625 "/></g></g></g><g fill="#f1efe7" fill-opacity="1"><g transform="translate(275.005304, 113.919461)"><g><path d="M 8.75 -5.84375 C 4.332031 -10.675781 2.125 -16.59375 2.125 -23.59375 C 2.125 -30.601562 4.332031 -36.535156 8.75 -41.390625 C 13.175781 -46.253906 18.800781 -48.6875 25.625 -48.6875 C 31.894531 -48.6875 37.0625 -46.71875 41.125 -42.78125 L 41.125 -79.296875 L 57.4375 -79.296875 L 57.4375 0 L 41.3125 0 L 41.3125 -5.34375 L 41.125 -5.34375 C 37.0625 -0.851562 31.894531 1.390625 25.625 1.390625 C 18.800781 1.390625 13.175781 -1.019531 8.75 -5.84375 Z M 22.625 -31.625 C 20.507812 -29.53125 19.453125 -26.851562 19.453125 -23.59375 C 19.453125 -20.34375 20.46875 -17.6875 22.5 -15.625 C 24.53125 -13.570312 27.203125 -12.546875 30.515625 -12.546875 C 33.710938 -12.546875 36.335938 -13.585938 38.390625 -15.671875 C 40.453125 -17.765625 41.484375 -20.410156 41.484375 -23.609375 C 41.484375 -26.859375 40.421875 -29.53125 38.296875 -31.625 C 36.179688 -33.71875 33.585938 -34.765625 30.515625 -34.765625 C 27.378906 -34.765625 24.75 -33.71875 22.625 -31.625 Z M 22.625 -31.625 "/></g></g></g><g fill="#f1efe7" fill-opacity="1"><g transform="translate(329.294488, 113.919461)"><g><path d="M 53.390625 -21.390625 L 19.09375 -21.390625 C 19.09375 -18.066406 20.164062 -15.609375 22.3125 -14.015625 C 24.46875 -12.421875 26.804688 -11.625 29.328125 -11.625 C 31.960938 -11.625 34.046875 -11.972656 35.578125 -12.671875 C 37.117188 -13.378906 38.875 -14.78125 40.84375 -16.875 L 52.640625 -10.96875 C 47.722656 -2.726562 39.550781 1.390625 28.125 1.390625 C 20.988281 1.390625 14.867188 -1.050781 9.765625 -5.9375 C 4.671875 -10.832031 2.125 -16.722656 2.125 -23.609375 C 2.125 -30.492188 4.671875 -36.394531 9.765625 -41.3125 C 14.867188 -46.226562 20.988281 -48.6875 28.125 -48.6875 C 35.625 -48.6875 41.722656 -46.519531 46.421875 -42.1875 C 51.128906 -37.851562 53.484375 -31.660156 53.484375 -23.609375 C 53.484375 -22.492188 53.453125 -21.753906 53.390625 -21.390625 Z M 19.546875 -30.421875 L 37.53125 -30.421875 C 37.15625 -32.878906 36.179688 -34.769531 34.609375 -36.09375 C 33.046875 -37.414062 31.035156 -38.078125 28.578125 -38.078125 C 25.878906 -38.078125 23.726562 -37.367188 22.125 -35.953125 C 20.53125 -34.546875 19.671875 -32.703125 19.546875 -30.421875 Z M 19.546875 -30.421875 "/></g></g></g><g fill="#f1efe7" fill-opacity="1"><g transform="translate(376.209599, 113.919461)"><g><path d="M 16.046875 -19.734375 C 18.992188 -19.734375 21.492188 -18.703125 23.546875 -16.640625 C 25.609375 -14.578125 26.640625 -12.070312 26.640625 -9.125 C 26.640625 -6.238281 25.609375 -3.765625 23.546875 -1.703125 C 21.492188 0.359375 18.992188 1.390625 16.046875 1.390625 C 13.148438 1.390625 10.671875 0.359375 8.609375 -1.703125 C 6.554688 -3.765625 5.53125 -6.238281 5.53125 -9.125 C 5.53125 -12.070312 6.554688 -14.578125 8.609375 -16.640625 C 10.671875 -18.703125 13.148438 -19.734375 16.046875 -19.734375 Z M 16.046875 -19.734375 "/></g></g></g><g fill="#f1efe7" fill-opacity="1"><g transform="translate(128.714691, 138.900736)"><g><path d="M 9.203125 -13.71875 C 9.460938 -13.71875 9.675781 -13.632812 9.84375 -13.46875 C 10.007812 -13.300781 10.09375 -13.085938 10.09375 -12.828125 L 10.09375 -0.890625 C 10.09375 -0.640625 10.007812 -0.425781 9.84375 -0.25 C 9.675781 -0.0820312 9.460938 0 9.203125 0 C 8.941406 0 8.726562 -0.0820312 8.5625 -0.25 C 8.40625 -0.414062 8.328125 -0.628906 8.328125 -0.890625 L 8.328125 -1.40625 C 8.015625 -0.957031 7.578125 -0.578125 7.015625 -0.265625 C 6.453125 0.0351562 5.851562 0.1875 5.21875 0.1875 C 4.375 0.1875 3.609375 -0.0234375 2.921875 -0.453125 C 2.242188 -0.890625 1.707031 -1.492188 1.3125 -2.265625 C 0.914062 -3.046875 0.71875 -3.914062 0.71875 -4.875 C 0.71875 -5.84375 0.910156 -6.710938 1.296875 -7.484375 C 1.691406 -8.253906 2.226562 -8.851562 2.90625 -9.28125 C 3.59375 -9.71875 4.34375 -9.9375 5.15625 -9.9375 C 5.8125 -9.9375 6.414062 -9.800781 6.96875 -9.53125 C 7.53125 -9.257812 7.984375 -8.90625 8.328125 -8.46875 L 8.328125 -12.828125 C 8.328125 -13.085938 8.40625 -13.300781 8.5625 -13.46875 C 8.726562 -13.632812 8.941406 -13.71875 9.203125 -13.71875 Z M 5.421875 -1.453125 C 5.992188 -1.453125 6.503906 -1.597656 6.953125 -1.890625 C 7.410156 -2.191406 7.765625 -2.597656 8.015625 -3.109375 C 8.273438 -3.628906 8.40625 -4.21875 8.40625 -4.875 C 8.40625 -5.519531 8.273438 -6.101562 8.015625 -6.625 C 7.765625 -7.15625 7.410156 -7.566406 6.953125 -7.859375 C 6.503906 -8.160156 5.992188 -8.3125 5.421875 -8.3125 C 4.835938 -8.3125 4.316406 -8.160156 3.859375 -7.859375 C 3.410156 -7.566406 3.054688 -7.15625 2.796875 -6.625 C 2.546875 -6.101562 2.421875 -5.519531 2.421875 -4.875 C 2.421875 -4.21875 2.546875 -3.628906 2.796875 -3.109375 C 3.054688 -2.597656 3.410156 -2.191406 3.859375 -1.890625 C 4.316406 -1.597656 4.835938 -1.453125 5.421875 -1.453125 Z M 5.421875 -1.453125 "/></g></g></g><g fill="#f1efe7" fill-opacity="1"><g transform="translate(152.199947, 138.900736)"><g><path d="M 9.84375 -5.234375 C 9.832031 -5.003906 9.738281 -4.8125 9.5625 -4.65625 C 9.394531 -4.507812 9.191406 -4.4375 8.953125 -4.4375 L 2.421875 -4.4375 C 2.515625 -3.53125 2.859375 -2.804688 3.453125 -2.265625 C 4.054688 -1.722656 4.789062 -1.453125 5.65625 -1.453125 C 6.25 -1.453125 6.726562 -1.535156 7.09375 -1.703125 C 7.46875 -1.878906 7.800781 -2.101562 8.09375 -2.375 C 8.269531 -2.488281 8.445312 -2.546875 8.625 -2.546875 C 8.832031 -2.546875 9.003906 -2.46875 9.140625 -2.3125 C 9.285156 -2.164062 9.359375 -1.992188 9.359375 -1.796875 C 9.359375 -1.535156 9.238281 -1.300781 9 -1.09375 C 8.632812 -0.738281 8.15625 -0.4375 7.5625 -0.1875 C 6.96875 0.0625 6.363281 0.1875 5.75 0.1875 C 4.75 0.1875 3.867188 -0.0195312 3.109375 -0.4375 C 2.347656 -0.863281 1.757812 -1.453125 1.34375 -2.203125 C 0.925781 -2.960938 0.71875 -3.816406 0.71875 -4.765625 C 0.71875 -5.804688 0.929688 -6.71875 1.359375 -7.5 C 1.785156 -8.289062 2.347656 -8.894531 3.046875 -9.3125 C 3.742188 -9.726562 4.492188 -9.9375 5.296875 -9.9375 C 6.085938 -9.9375 6.828125 -9.734375 7.515625 -9.328125 C 8.210938 -8.921875 8.769531 -8.359375 9.1875 -7.640625 C 9.613281 -6.921875 9.832031 -6.117188 9.84375 -5.234375 Z M 5.296875 -8.3125 C 4.609375 -8.3125 4.007812 -8.113281 3.5 -7.71875 C 3 -7.332031 2.664062 -6.734375 2.5 -5.921875 L 7.96875 -5.921875 L 7.96875 -6.0625 C 7.90625 -6.71875 7.613281 -7.253906 7.09375 -7.671875 C 6.570312 -8.097656 5.972656 -8.3125 5.296875 -8.3125 Z M 5.296875 -8.3125 "/></g></g></g><g fill="#f1efe7" fill-opacity="1"><g transform="translate(174.869212, 138.900736)"><g><path d="M 8.734375 -9.8125 C 8.972656 -9.8125 9.171875 -9.734375 9.328125 -9.578125 C 9.484375 -9.421875 9.5625 -9.238281 9.5625 -9.03125 C 9.5625 -8.914062 9.519531 -8.757812 9.4375 -8.5625 L 5.921875 -0.5625 C 5.847656 -0.394531 5.738281 -0.257812 5.59375 -0.15625 C 5.457031 -0.0625 5.3125 -0.0078125 5.15625 0 C 4.957031 0.0195312 4.773438 -0.015625 4.609375 -0.109375 C 4.441406 -0.210938 4.316406 -0.363281 4.234375 -0.5625 L 0.703125 -8.5625 C 0.640625 -8.75 0.609375 -8.90625 0.609375 -9.03125 C 0.609375 -9.226562 0.6875 -9.40625 0.84375 -9.5625 C 1.007812 -9.726562 1.222656 -9.8125 1.484375 -9.8125 C 1.671875 -9.8125 1.835938 -9.765625 1.984375 -9.671875 C 2.128906 -9.578125 2.25 -9.4375 2.34375 -9.25 L 5.140625 -2.75 L 7.9375 -9.25 C 8.113281 -9.625 8.378906 -9.8125 8.734375 -9.8125 Z M 8.734375 -9.8125 "/></g></g></g><g fill="#f1efe7" fill-opacity="1"><g transform="translate(197.130491, 138.900736)"><g><path d="M 9.84375 -5.234375 C 9.832031 -5.003906 9.738281 -4.8125 9.5625 -4.65625 C 9.394531 -4.507812 9.191406 -4.4375 8.953125 -4.4375 L 2.421875 -4.4375 C 2.515625 -3.53125 2.859375 -2.804688 3.453125 -2.265625 C 4.054688 -1.722656 4.789062 -1.453125 5.65625 -1.453125 C 6.25 -1.453125 6.726562 -1.535156 7.09375 -1.703125 C 7.46875 -1.878906 7.800781 -2.101562 8.09375 -2.375 C 8.269531 -2.488281 8.445312 -2.546875 8.625 -2.546875 C 8.832031 -2.546875 9.003906 -2.46875 9.140625 -2.3125 C 9.285156 -2.164062 9.359375 -1.992188 9.359375 -1.796875 C 9.359375 -1.535156 9.238281 -1.300781 9 -1.09375 C 8.632812 -0.738281 8.15625 -0.4375 7.5625 -0.1875 C 6.96875 0.0625 6.363281 0.1875 5.75 0.1875 C 4.75 0.1875 3.867188 -0.0195312 3.109375 -0.4375 C 2.347656 -0.863281 1.757812 -1.453125 1.34375 -2.203125 C 0.925781 -2.960938 0.71875 -3.816406 0.71875 -4.765625 C 0.71875 -5.804688 0.929688 -6.71875 1.359375 -7.5 C 1.785156 -8.289062 2.347656 -8.894531 3.046875 -9.3125 C 3.742188 -9.726562 4.492188 -9.9375 5.296875 -9.9375 C 6.085938 -9.9375 6.828125 -9.734375 7.515625 -9.328125 C 8.210938 -8.921875 8.769531 -8.359375 9.1875 -7.640625 C 9.613281 -6.921875 9.832031 -6.117188 9.84375 -5.234375 Z M 5.296875 -8.3125 C 4.609375 -8.3125 4.007812 -8.113281 3.5 -7.71875 C 3 -7.332031 2.664062 -6.734375 2.5 -5.921875 L 7.96875 -5.921875 L 7.96875 -6.0625 C 7.90625 -6.71875 7.613281 -7.253906 7.09375 -7.671875 C 6.570312 -8.097656 5.972656 -8.3125 5.296875 -8.3125 Z M 5.296875 -8.3125 "/></g></g></g><g fill="#f1efe7" fill-opacity="1"><g transform="translate(219.799756, 138.900736)"><g><path d="M 3.234375 -0.890625 C 3.234375 -0.640625 3.144531 -0.425781 2.96875 -0.25 C 2.789062 -0.0820312 2.582031 0 2.34375 0 C 2.09375 0 1.882812 -0.0820312 1.71875 -0.25 C 1.550781 -0.425781 1.46875 -0.640625 1.46875 -0.890625 L 1.46875 -12.828125 C 1.46875 -13.078125 1.550781 -13.285156 1.71875 -13.453125 C 1.894531 -13.628906 2.109375 -13.71875 2.359375 -13.71875 C 2.597656 -13.71875 2.800781 -13.628906 2.96875 -13.453125 C 3.144531 -13.285156 3.234375 -13.078125 3.234375 -12.828125 Z M 3.234375 -0.890625 "/></g></g></g><g fill="#f1efe7" fill-opacity="1"><g transform="translate(236.590312, 138.900736)"><g><path d="M 10.515625 -4.859375 C 10.515625 -3.890625 10.296875 -3.019531 9.859375 -2.25 C 9.429688 -1.488281 8.84375 -0.890625 8.09375 -0.453125 C 7.34375 -0.0234375 6.519531 0.1875 5.625 0.1875 C 4.71875 0.1875 3.890625 -0.0234375 3.140625 -0.453125 C 2.390625 -0.890625 1.796875 -1.488281 1.359375 -2.25 C 0.929688 -3.019531 0.71875 -3.890625 0.71875 -4.859375 C 0.71875 -5.828125 0.929688 -6.695312 1.359375 -7.46875 C 1.796875 -8.25 2.390625 -8.851562 3.140625 -9.28125 C 3.890625 -9.71875 4.71875 -9.9375 5.625 -9.9375 C 6.519531 -9.9375 7.34375 -9.71875 8.09375 -9.28125 C 8.84375 -8.851562 9.429688 -8.25 9.859375 -7.46875 C 10.296875 -6.695312 10.515625 -5.828125 10.515625 -4.859375 Z M 8.75 -4.859375 C 8.75 -5.523438 8.609375 -6.117188 8.328125 -6.640625 C 8.054688 -7.171875 7.679688 -7.582031 7.203125 -7.875 C 6.722656 -8.164062 6.195312 -8.3125 5.625 -8.3125 C 5.039062 -8.3125 4.507812 -8.164062 4.03125 -7.875 C 3.550781 -7.582031 3.171875 -7.171875 2.890625 -6.640625 C 2.617188 -6.117188 2.484375 -5.523438 2.484375 -4.859375 C 2.484375 -4.203125 2.617188 -3.613281 2.890625 -3.09375 C 3.171875 -2.570312 3.550781 -2.164062 4.03125 -1.875 C 4.507812 -1.59375 5.039062 -1.453125 5.625 -1.453125 C 6.195312 -1.453125 6.722656 -1.59375 7.203125 -1.875 C 7.679688 -2.164062 8.054688 -2.570312 8.328125 -3.09375 C 8.609375 -3.613281 8.75 -4.203125 8.75 -4.859375 Z M 8.75 -4.859375 "/></g></g></g><g fill="#f1efe7" fill-opacity="1"><g transform="translate(259.927206, 138.900736)"><g><path d="M 6.1875 -9.890625 C 7.03125 -9.890625 7.789062 -9.675781 8.46875 -9.25 C 9.15625 -8.820312 9.691406 -8.222656 10.078125 -7.453125 C 10.472656 -6.691406 10.671875 -5.828125 10.671875 -4.859375 C 10.671875 -3.890625 10.472656 -3.023438 10.078125 -2.265625 C 9.691406 -1.503906 9.15625 -0.90625 8.46875 -0.46875 C 7.789062 -0.0390625 7.046875 0.171875 6.234375 0.171875 C 5.585938 0.171875 4.984375 0.03125 4.421875 -0.25 C 3.867188 -0.539062 3.421875 -0.890625 3.078125 -1.296875 L 3.078125 2.8125 C 3.078125 3.0625 2.992188 3.269531 2.828125 3.4375 C 2.660156 3.613281 2.445312 3.703125 2.1875 3.703125 C 1.9375 3.703125 1.726562 3.617188 1.5625 3.453125 C 1.394531 3.285156 1.3125 3.070312 1.3125 2.8125 L 1.3125 -8.84375 C 1.3125 -9.101562 1.390625 -9.316406 1.546875 -9.484375 C 1.710938 -9.660156 1.925781 -9.75 2.1875 -9.75 C 2.445312 -9.75 2.660156 -9.660156 2.828125 -9.484375 C 2.992188 -9.316406 3.078125 -9.101562 3.078125 -8.84375 L 3.078125 -8.3125 C 3.378906 -8.738281 3.8125 -9.109375 4.375 -9.421875 C 4.945312 -9.734375 5.550781 -9.890625 6.1875 -9.890625 Z M 5.984375 -1.46875 C 6.554688 -1.46875 7.070312 -1.613281 7.53125 -1.90625 C 7.988281 -2.207031 8.34375 -2.613281 8.59375 -3.125 C 8.851562 -3.632812 8.984375 -4.210938 8.984375 -4.859375 C 8.984375 -5.503906 8.851562 -6.082031 8.59375 -6.59375 C 8.34375 -7.101562 7.988281 -7.503906 7.53125 -7.796875 C 7.070312 -8.097656 6.554688 -8.25 5.984375 -8.25 C 5.410156 -8.25 4.894531 -8.101562 4.4375 -7.8125 C 3.976562 -7.519531 3.617188 -7.113281 3.359375 -6.59375 C 3.109375 -6.082031 2.984375 -5.503906 2.984375 -4.859375 C 2.984375 -4.210938 3.109375 -3.628906 3.359375 -3.109375 C 3.617188 -2.597656 3.976562 -2.195312 4.4375 -1.90625 C 4.894531 -1.613281 5.410156 -1.46875 5.984375 -1.46875 Z M 5.984375 -1.46875 "/></g></g></g><g fill="#f1efe7" fill-opacity="1"><g transform="translate(283.412462, 138.900736)"><g><path d="M 9.84375 -5.234375 C 9.832031 -5.003906 9.738281 -4.8125 9.5625 -4.65625 C 9.394531 -4.507812 9.191406 -4.4375 8.953125 -4.4375 L 2.421875 -4.4375 C 2.515625 -3.53125 2.859375 -2.804688 3.453125 -2.265625 C 4.054688 -1.722656 4.789062 -1.453125 5.65625 -1.453125 C 6.25 -1.453125 6.726562 -1.535156 7.09375 -1.703125 C 7.46875 -1.878906 7.800781 -2.101562 8.09375 -2.375 C 8.269531 -2.488281 8.445312 -2.546875 8.625 -2.546875 C 8.832031 -2.546875 9.003906 -2.46875 9.140625 -2.3125 C 9.285156 -2.164062 9.359375 -1.992188 9.359375 -1.796875 C 9.359375 -1.535156 9.238281 -1.300781 9 -1.09375 C 8.632812 -0.738281 8.15625 -0.4375 7.5625 -0.1875 C 6.96875 0.0625 6.363281 0.1875 5.75 0.1875 C 4.75 0.1875 3.867188 -0.0195312 3.109375 -0.4375 C 2.347656 -0.863281 1.757812 -1.453125 1.34375 -2.203125 C 0.925781 -2.960938 0.71875 -3.816406 0.71875 -4.765625 C 0.71875 -5.804688 0.929688 -6.71875 1.359375 -7.5 C 1.785156 -8.289062 2.347656 -8.894531 3.046875 -9.3125 C 3.742188 -9.726562 4.492188 -9.9375 5.296875 -9.9375 C 6.085938 -9.9375 6.828125 -9.734375 7.515625 -9.328125 C 8.210938 -8.921875 8.769531 -8.359375 9.1875 -7.640625 C 9.613281 -6.921875 9.832031 -6.117188 9.84375 -5.234375 Z M 5.296875 -8.3125 C 4.609375 -8.3125 4.007812 -8.113281 3.5 -7.71875 C 3 -7.332031 2.664062 -6.734375 2.5 -5.921875 L 7.96875 -5.921875 L 7.96875 -6.0625 C 7.90625 -6.71875 7.613281 -7.253906 7.09375 -7.671875 C 6.570312 -8.097656 5.972656 -8.3125 5.296875 -8.3125 Z M 5.296875 -8.3125 "/></g></g></g><g fill="#f1efe7" fill-opacity="1"><g transform="translate(306.081727, 138.900736)"><g><path d="M 6.15625 -9.9375 C 6.476562 -9.9375 6.753906 -9.851562 6.984375 -9.6875 C 7.222656 -9.519531 7.34375 -9.3125 7.34375 -9.0625 C 7.34375 -8.769531 7.265625 -8.546875 7.109375 -8.390625 C 6.953125 -8.234375 6.765625 -8.15625 6.546875 -8.15625 C 6.429688 -8.15625 6.265625 -8.191406 6.046875 -8.265625 C 5.785156 -8.359375 5.582031 -8.40625 5.4375 -8.40625 C 5.050781 -8.40625 4.675781 -8.269531 4.3125 -8 C 3.945312 -7.738281 3.648438 -7.375 3.421875 -6.90625 C 3.191406 -6.445312 3.078125 -5.929688 3.078125 -5.359375 L 3.078125 -0.890625 C 3.078125 -0.640625 2.992188 -0.425781 2.828125 -0.25 C 2.660156 -0.0820312 2.445312 0 2.1875 0 C 1.925781 0 1.710938 -0.0820312 1.546875 -0.25 C 1.390625 -0.414062 1.3125 -0.628906 1.3125 -0.890625 L 1.3125 -8.828125 C 1.3125 -9.078125 1.394531 -9.285156 1.5625 -9.453125 C 1.726562 -9.628906 1.9375 -9.71875 2.1875 -9.71875 C 2.445312 -9.71875 2.660156 -9.628906 2.828125 -9.453125 C 2.992188 -9.285156 3.078125 -9.078125 3.078125 -8.828125 L 3.078125 -7.875 C 3.347656 -8.488281 3.753906 -8.984375 4.296875 -9.359375 C 4.847656 -9.734375 5.46875 -9.925781 6.15625 -9.9375 Z M 6.15625 -9.9375 "/></g></g></g></svg>