<svg xmlns="http://www.w3.org/2000/svg" xmlns:xlink="http://www.w3.org/1999/xlink" width="591" zoomAndPan="magnify" viewBox="0 0 443.25 178.499995" height="238" preserveAspectRatio="xMidYMid meet" version="1.0"><defs><g/></defs><g fill="#f1efe7" fill-opacity="1"><g transform="translate(34.069642, 113.919461)"><g><path d="M 59.5625 -47.296875 L 37.0625 -24.703125 L 61.78125 0 L 40.75 0 L 21.859375 -18.90625 L 21.859375 0 L 5.53125 0 L 5.53125 -79.296875 L 21.859375 -79.296875 L 21.859375 -30.796875 L 38.359375 -47.296875 Z M 59.5625 -47.296875 "/></g></g></g><g fill="#f1efe7" fill-opacity="1"><g transform="translate(84.948316, 113.919461)"><g><path d="M 53.390625 -21.390625 L 19.09375 -21.390625 C 19.09375 -18.066406 20.164062 -15.609375 22.3125 -14.015625 C 24.46875 -12.421875 26.804688 -11.625 29.328125 -11.625 C 31.960938 -11.625 34.046875 -11.972656 35.578125 -12.671875 C 37.117188 -13.378906 38.875 -14.78125 40.84375 -16.875 L 52.640625 -10.96875 C 47.722656 -2.726562 39.550781 1.390625 28.125 1.390625 C 20.988281 1.390625 14.867188 -1.050781 9.765625 -5.9375 C 4.671875 -10.832031 2.125 -16.722656 2.125 -23.609375 C 2.125 -30.492188 4.671875 -36.394531 9.765625 -41.3125 C 14.867188 -46.226562 20.988281 -48.6875 28.125 -48.6875 C 35.625 -48.6875 41.722656 -46.519531 46.421875 -42.1875 C 51.128906 -37.851562 53.484375 -31.660156 53.484375 -23.609375 C 53.484375 -22.492188 53.453125 -21.753906 53.390625 -21.390625 Z M 19.546875 -30.421875 L 37.53125 -30.421875 C 37.15625 -32.878906 36.179688 -34.769531 34.609375 -36.09375 C 33.046875 -37.414062 31.035156 -38.078125 28.578125 -38.078125 C 25.878906 -38.078125 23.726562 -37.367188 22.125 -35.953125 C 20.53125 -34.546875 19.671875 -32.703125 19.546875 -30.421875 Z M 19.546875 -30.421875 "/></g></g></g><g fill="#f1efe7" fill-opacity="1"><g transform="translate(131.863418, 113.919461)"><g><path d="M 8.75 -5.84375 C 4.332031 -10.675781 2.125 -16.59375 2.125 -23.59375 C 2.125 -30.601562 4.332031 -36.535156 8.75 -41.390625 C 13.175781 -46.253906 18.800781 -48.6875 25.625 -48.6875 C 31.894531 -48.6875 37.0625 -46.71875 41.125 -42.78125 L 41.125 -79.296875 L 57.4375 -79.296875 L 57.4375 0 L 41.3125 0 L 41.3125 -5.34375 L 41.125 -5.34375 C 37.0625 -0.851562 31.894531 1.390625 25.625 1.390625 C 18.800781 1.390625 13.175781 -1.019531 8.75 -5.84375 Z M 22.625 -31.625 C 20.507812 -29.53125 19.453125 -26.851562 19.453125 -23.59375 C 19.453125 -20.34375 20.46875 -17.6875 22.5 -15.625 C 24.53125 -13.570312 27.203125 -12.546875 30.515625 -12.546875 C 33.710938 -12.546875 36.335938 -13.585938 38.390625 -15.671875 C 40.453125 -17.765625 41.484375 -20.410156 41.484375 -23.609375 C 41.484375 -26.859375 40.421875 -29.53125 38.296875 -31.625 C 36.179688 -33.71875 33.585938 -34.765625 30.515625 -34.765625 C 27.378906 -34.765625 24.75 -33.71875 22.625 -31.625 Z M 22.625 -31.625 "/></g></g></g><g fill="#f1efe7" fill-opacity="1"><g transform="translate(186.152612, 113.919461)"><g><path d="M 30.703125 -35.3125 C 27.628906 -35.3125 24.984375 -34.171875 22.765625 -31.890625 C 20.554688 -29.617188 19.453125 -26.890625 19.453125 -23.703125 C 19.453125 -20.441406 20.554688 -17.671875 22.765625 -15.390625 C 24.984375 -13.117188 27.628906 -11.984375 30.703125 -11.984375 C 32.179688 -11.984375 33.578125 -12.164062 34.890625 -12.53125 C 36.210938 -12.90625 37.179688 -13.273438 37.796875 -13.640625 L 38.640625 -14.203125 L 44.171875 -2.859375 C 43.734375 -2.546875 43.128906 -2.160156 42.359375 -1.703125 C 41.597656 -1.242188 39.847656 -0.613281 37.109375 0.1875 C 34.378906 0.988281 31.445312 1.390625 28.3125 1.390625 C 21.363281 1.390625 15.257812 -1.050781 10 -5.9375 C 4.75 -10.832031 2.125 -16.691406 2.125 -23.515625 C 2.125 -30.398438 4.75 -36.316406 10 -41.265625 C 15.257812 -46.210938 21.363281 -48.6875 28.3125 -48.6875 C 31.445312 -48.6875 34.332031 -48.316406 36.96875 -47.578125 C 39.613281 -46.835938 41.488281 -46.097656 42.59375 -45.359375 L 44.171875 -44.25 L 38.640625 -33.09375 C 36.609375 -34.570312 33.960938 -35.3125 30.703125 -35.3125 Z M 30.703125 -35.3125 "/></g></g></g><g fill="#f1efe7" fill-opacity="1"><g transform="translate(222.743996, 113.919461)"><g><path d="M 10 -5.609375 C 4.75 -10.285156 2.125 -16.28125 2.125 -23.59375 C 2.125 -30.914062 4.859375 -36.925781 10.328125 -41.625 C 15.796875 -46.332031 22.554688 -48.6875 30.609375 -48.6875 C 38.535156 -48.6875 45.21875 -46.316406 50.65625 -41.578125 C 56.101562 -36.847656 58.828125 -30.851562 58.828125 -23.59375 C 58.828125 -16.34375 56.164062 -10.363281 50.84375 -5.65625 C 45.53125 -0.957031 38.785156 1.390625 30.609375 1.390625 C 22.128906 1.390625 15.257812 -0.941406 10 -5.609375 Z M 22.625 -31.625 C 20.507812 -29.53125 19.453125 -26.851562 19.453125 -23.59375 C 19.453125 -20.34375 20.46875 -17.6875 22.5 -15.625 C 24.53125 -13.570312 27.203125 -12.546875 30.515625 -12.546875 C 33.710938 -12.546875 36.335938 -13.585938 38.390625 -15.671875 C 40.453125 -17.765625 41.484375 -20.410156 41.484375 -23.609375 C 41.484375 -26.859375 40.421875 -29.53125 38.296875 -31.625 C 36.179688 -33.71875 33.585938 -34.765625 30.515625 -34.765625 C 27.378906 -34.765625 24.75 -33.71875 22.625 -31.625 Z M 22.625 -31.625 "/></g></g></g><g fill="#f1efe7" fill-opacity="1"><g transform="translate(275.005304, 113.919461)"><g><path d="M 8.75 -5.84375 C 4.332031 -10.675781 2.125 -16.59375 2.125 -23.59375 C 2.125 -30.601562 4.332031 -36.535156 8.75 -41.390625 C 13.175781 -46.253906 18.800781 -48.6875 25.625 -48.6875 C 31.894531 -48.6875 37.0625 -46.71875 41.125 -42.78125 L 41.125 -79.296875 L 57.4375 -79.296875 L 57.4375 0 L 41.3125 0 L 41.3125 -5.34375 L 41.125 -5.34375 C 37.0625 -0.851562 31.894531 1.390625 25.625 1.390625 C 18.800781 1.390625 13.175781 -1.019531 8.75 -5.84375 Z M 22.625 -31.625 C 20.507812 -29.53125 19.453125 -26.851562 19.453125 -23.59375 C 19.453125 -20.34375 20.46875 -17.6875 22.5 -15.625 C 24.53125 -13.570312 27.203125 -12.546875 30.515625 -12.546875 C 33.710938 -12.546875 36.335938 -13.585938 38.390625 -15.671875 C 40.453125 -17.765625 41.484375 -20.410156 41.484375 -23.609375 C 41.484375 -26.859375 40.421875 -29.53125 38.296875 -31.625 C 36.179688 -33.71875 33.585938 -34.765625 30.515625 -34.765625 C 27.378906 -34.765625 24.75 -33.71875 22.625 -31.625 Z M 22.625 -31.625 "/></g></g></g><g fill="#f1efe7" fill-opacity="1"><g transform="translate(329.294488, 113.919461)"><g><path d="M 53.390625 -21.390625 L 19.09375 -21.390625 C 19.09375 -18.066406 20.164062 -15.609375 22.3125 -14.015625 C 24.46875 -12.421875 26.804688 -11.625 29.328125 -11.625 C 31.960938 -11.625 34.046875 -11.972656 35.578125 -12.671875 C 37.117188 -13.378906 38.875 -14.78125 40.84375 -16.875 L 52.640625 -10.96875 C 47.722656 -2.726562 39.550781 1.390625 28.125 1.390625 C 20.988281 1.390625 14.867188 -1.050781 9.765625 -5.9375 C 4.671875 -10.832031 2.125 -16.722656 2.125 -23.609375 C 2.125 -30.492188 4.671875 -36.394531 9.765625 -41.3125 C 14.867188 -46.226562 20.988281 -48.6875 28.125 -48.6875 C 35.625 -48.6875 41.722656 -46.519531 46.421875 -42.1875 C 51.128906 -37.851562 53.484375 -31.660156 53.484375 -23.609375 C 53.484375 -22.492188 53.453125 -21.753906 53.390625 -21.390625 Z M 19.546875 -30.421875 L 37.53125 -30.421875 C 37.15625 -32.878906 36.179688 -34.769531 34.609375 -36.09375 C 33.046875 -37.414062 31.035156 -38.078125 28.578125 -38.078125 C 25.878906 -38.078125 23.726562 -37.367188 22.125 -35.953125 C 20.53125 -34.546875 19.671875 -32.703125 19.546875 -30.421875 Z M 19.546875 -30.421875 "/></g></g></g><g fill="#f1efe7" fill-opacity="1"><g transform="translate(376.209599, 113.919461)"><g><path d="M 16.046875 -19.734375 C 18.992188 -19.734375 21.492188 -18.703125 23.546875 -16.640625 C 25.609375 -14.578125 26.640625 -12.070312 26.640625 -9.125 C 26.640625 -6.238281 25.609375 -3.765625 23.546875 -1.703125 C 21.492188 0.359375 18.992188 1.390625 16.046875 1.390625 C 13.148438 1.390625 10.671875 0.359375 8.609375 -1.703125 C 6.554688 -3.765625 5.53125 -6.238281 5.53125 -9.125 C 5.53125 -12.070312 6.554688 -14.578125 8.609375 -16.640625 C 10.671875 -18.703125 13.148438 -19.734375 16.046875 -19.734375 Z M 16.046875 -19.734375 "/></g></g></g><g fill="#f1efe7" fill-opacity="1"><g transform="translate(108.834676, 138.632016)"><g><path d="M 11.1875 -16.6875 C 11.5 -16.6875 11.753906 -16.582031 11.953125 -16.375 C 12.160156 -16.175781 12.265625 -15.921875 12.265625 -15.609375 L 12.265625 -1.078125 C 12.265625 -0.773438 12.160156 -0.519531 11.953125 -0.3125 C 11.753906 -0.101562 11.5 0 11.1875 0 C 10.863281 0 10.601562 -0.0976562 10.40625 -0.296875 C 10.21875 -0.503906 10.125 -0.765625 10.125 -1.078125 L 10.125 -1.71875 C 9.75 -1.175781 9.21875 -0.71875 8.53125 -0.34375 C 7.851562 0.03125 7.117188 0.21875 6.328125 0.21875 C 5.304688 0.21875 4.382812 -0.0390625 3.5625 -0.5625 C 2.738281 -1.09375 2.082031 -1.828125 1.59375 -2.765625 C 1.113281 -3.703125 0.875 -4.757812 0.875 -5.9375 C 0.875 -7.101562 1.109375 -8.15625 1.578125 -9.09375 C 2.054688 -10.03125 2.707031 -10.757812 3.53125 -11.28125 C 4.363281 -11.8125 5.273438 -12.078125 6.265625 -12.078125 C 7.066406 -12.078125 7.804688 -11.910156 8.484375 -11.578125 C 9.160156 -11.253906 9.707031 -10.828125 10.125 -10.296875 L 10.125 -15.609375 C 10.125 -15.921875 10.21875 -16.175781 10.40625 -16.375 C 10.601562 -16.582031 10.863281 -16.6875 11.1875 -16.6875 Z M 6.578125 -1.765625 C 7.285156 -1.765625 7.914062 -1.941406 8.46875 -2.296875 C 9.019531 -2.660156 9.445312 -3.15625 9.75 -3.78125 C 10.0625 -4.414062 10.21875 -5.132812 10.21875 -5.9375 C 10.21875 -6.71875 10.0625 -7.425781 9.75 -8.0625 C 9.445312 -8.695312 9.019531 -9.191406 8.46875 -9.546875 C 7.914062 -9.910156 7.285156 -10.09375 6.578125 -10.09375 C 5.878906 -10.09375 5.253906 -9.910156 4.703125 -9.546875 C 4.148438 -9.191406 3.71875 -8.695312 3.40625 -8.0625 C 3.101562 -7.425781 2.953125 -6.71875 2.953125 -5.9375 C 2.953125 -5.132812 3.101562 -4.414062 3.40625 -3.78125 C 3.71875 -3.15625 4.148438 -2.660156 4.703125 -2.296875 C 5.253906 -1.941406 5.878906 -1.765625 6.578125 -1.765625 Z M 6.578125 -1.765625 "/></g></g></g><g fill="#f1efe7" fill-opacity="1"><g transform="translate(137.367779, 138.632016)"><g><path d="M 11.96875 -6.359375 C 11.957031 -6.085938 11.84375 -5.859375 11.625 -5.671875 C 11.414062 -5.484375 11.171875 -5.390625 10.890625 -5.390625 L 2.953125 -5.390625 C 3.054688 -4.296875 3.472656 -3.414062 4.203125 -2.75 C 4.929688 -2.09375 5.820312 -1.765625 6.875 -1.765625 C 7.59375 -1.765625 8.175781 -1.867188 8.625 -2.078125 C 9.082031 -2.285156 9.484375 -2.554688 9.828125 -2.890625 C 10.054688 -3.023438 10.273438 -3.09375 10.484375 -3.09375 C 10.742188 -3.09375 10.957031 -3 11.125 -2.8125 C 11.300781 -2.632812 11.390625 -2.425781 11.390625 -2.1875 C 11.390625 -1.875 11.238281 -1.585938 10.9375 -1.328125 C 10.5 -0.890625 9.914062 -0.519531 9.1875 -0.21875 C 8.46875 0.0703125 7.734375 0.21875 6.984375 0.21875 C 5.765625 0.21875 4.691406 -0.0351562 3.765625 -0.546875 C 2.847656 -1.054688 2.132812 -1.769531 1.625 -2.6875 C 1.125 -3.601562 0.875 -4.640625 0.875 -5.796875 C 0.875 -7.054688 1.132812 -8.160156 1.65625 -9.109375 C 2.175781 -10.066406 2.859375 -10.800781 3.703125 -11.3125 C 4.554688 -11.820312 5.472656 -12.078125 6.453125 -12.078125 C 7.410156 -12.078125 8.3125 -11.828125 9.15625 -11.328125 C 10 -10.835938 10.675781 -10.15625 11.1875 -9.28125 C 11.695312 -8.414062 11.957031 -7.441406 11.96875 -6.359375 Z M 6.453125 -10.09375 C 5.609375 -10.09375 4.878906 -9.859375 4.265625 -9.390625 C 3.648438 -8.921875 3.242188 -8.1875 3.046875 -7.1875 L 9.6875 -7.1875 L 9.6875 -7.375 C 9.613281 -8.164062 9.257812 -8.816406 8.625 -9.328125 C 7.988281 -9.835938 7.265625 -10.09375 6.453125 -10.09375 Z M 6.453125 -10.09375 "/></g></g></g><g fill="#f1efe7" fill-opacity="1"><g transform="translate(164.909535, 138.632016)"><g><path d="M 10.625 -11.921875 C 10.90625 -11.921875 11.144531 -11.828125 11.34375 -11.640625 C 11.539062 -11.453125 11.640625 -11.234375 11.640625 -10.984375 C 11.640625 -10.847656 11.582031 -10.660156 11.46875 -10.421875 L 7.1875 -0.671875 C 7.101562 -0.484375 6.976562 -0.328125 6.8125 -0.203125 C 6.644531 -0.078125 6.460938 -0.0078125 6.265625 0 C 6.023438 0.03125 5.800781 -0.0078125 5.59375 -0.125 C 5.394531 -0.25 5.242188 -0.429688 5.140625 -0.671875 L 0.859375 -10.421875 C 0.785156 -10.640625 0.75 -10.828125 0.75 -10.984375 C 0.75 -11.222656 0.84375 -11.4375 1.03125 -11.625 C 1.226562 -11.820312 1.484375 -11.921875 1.796875 -11.921875 C 2.023438 -11.921875 2.226562 -11.863281 2.40625 -11.75 C 2.59375 -11.644531 2.738281 -11.476562 2.84375 -11.25 L 6.25 -3.34375 L 9.65625 -11.25 C 9.863281 -11.695312 10.1875 -11.921875 10.625 -11.921875 Z M 10.625 -11.921875 "/></g></g></g><g fill="#f1efe7" fill-opacity="1"><g transform="translate(191.955625, 138.632016)"><g><path d="M 11.96875 -6.359375 C 11.957031 -6.085938 11.84375 -5.859375 11.625 -5.671875 C 11.414062 -5.484375 11.171875 -5.390625 10.890625 -5.390625 L 2.953125 -5.390625 C 3.054688 -4.296875 3.472656 -3.414062 4.203125 -2.75 C 4.929688 -2.09375 5.820312 -1.765625 6.875 -1.765625 C 7.59375 -1.765625 8.175781 -1.867188 8.625 -2.078125 C 9.082031 -2.285156 9.484375 -2.554688 9.828125 -2.890625 C 10.054688 -3.023438 10.273438 -3.09375 10.484375 -3.09375 C 10.742188 -3.09375 10.957031 -3 11.125 -2.8125 C 11.300781 -2.632812 11.390625 -2.425781 11.390625 -2.1875 C 11.390625 -1.875 11.238281 -1.585938 10.9375 -1.328125 C 10.5 -0.890625 9.914062 -0.519531 9.1875 -0.21875 C 8.46875 0.0703125 7.734375 0.21875 6.984375 0.21875 C 5.765625 0.21875 4.691406 -0.0351562 3.765625 -0.546875 C 2.847656 -1.054688 2.132812 -1.769531 1.625 -2.6875 C 1.125 -3.601562 0.875 -4.640625 0.875 -5.796875 C 0.875 -7.054688 1.132812 -8.160156 1.65625 -9.109375 C 2.175781 -10.066406 2.859375 -10.800781 3.703125 -11.3125 C 4.554688 -11.820312 5.472656 -12.078125 6.453125 -12.078125 C 7.410156 -12.078125 8.3125 -11.828125 9.15625 -11.328125 C 10 -10.835938 10.675781 -10.15625 11.1875 -9.28125 C 11.695312 -8.414062 11.957031 -7.441406 11.96875 -6.359375 Z M 6.453125 -10.09375 C 5.609375 -10.09375 4.878906 -9.859375 4.265625 -9.390625 C 3.648438 -8.921875 3.242188 -8.1875 3.046875 -7.1875 L 9.6875 -7.1875 L 9.6875 -7.375 C 9.613281 -8.164062 9.257812 -8.816406 8.625 -9.328125 C 7.988281 -9.835938 7.265625 -10.09375 6.453125 -10.09375 Z M 6.453125 -10.09375 "/></g></g></g><g fill="#f1efe7" fill-opacity="1"><g transform="translate(219.497383, 138.632016)"><g><path d="M 3.921875 -1.078125 C 3.921875 -0.773438 3.816406 -0.519531 3.609375 -0.3125 C 3.398438 -0.101562 3.144531 0 2.84375 0 C 2.539062 0 2.285156 -0.101562 2.078125 -0.3125 C 1.878906 -0.519531 1.78125 -0.773438 1.78125 -1.078125 L 1.78125 -15.609375 C 1.78125 -15.898438 1.882812 -16.148438 2.09375 -16.359375 C 2.300781 -16.578125 2.554688 -16.6875 2.859375 -16.6875 C 3.160156 -16.6875 3.410156 -16.578125 3.609375 -16.359375 C 3.816406 -16.148438 3.921875 -15.898438 3.921875 -15.609375 Z M 3.921875 -1.078125 "/></g></g></g><g fill="#f1efe7" fill-opacity="1"><g transform="translate(239.896955, 138.632016)"><g><path d="M 12.78125 -5.90625 C 12.78125 -4.738281 12.515625 -3.6875 11.984375 -2.75 C 11.460938 -1.820312 10.75 -1.09375 9.84375 -0.5625 C 8.9375 -0.0390625 7.929688 0.21875 6.828125 0.21875 C 5.734375 0.21875 4.726562 -0.0390625 3.8125 -0.5625 C 2.90625 -1.09375 2.1875 -1.820312 1.65625 -2.75 C 1.132812 -3.6875 0.875 -4.738281 0.875 -5.90625 C 0.875 -7.082031 1.132812 -8.140625 1.65625 -9.078125 C 2.1875 -10.023438 2.90625 -10.757812 3.8125 -11.28125 C 4.726562 -11.8125 5.734375 -12.078125 6.828125 -12.078125 C 7.929688 -12.078125 8.9375 -11.8125 9.84375 -11.28125 C 10.75 -10.757812 11.460938 -10.023438 11.984375 -9.078125 C 12.515625 -8.140625 12.78125 -7.082031 12.78125 -5.90625 Z M 10.640625 -5.90625 C 10.640625 -6.71875 10.46875 -7.441406 10.125 -8.078125 C 9.789062 -8.722656 9.332031 -9.21875 8.75 -9.5625 C 8.175781 -9.914062 7.535156 -10.09375 6.828125 -10.09375 C 6.117188 -10.09375 5.472656 -9.914062 4.890625 -9.5625 C 4.316406 -9.21875 3.859375 -8.722656 3.515625 -8.078125 C 3.179688 -7.441406 3.015625 -6.71875 3.015625 -5.90625 C 3.015625 -5.113281 3.179688 -4.398438 3.515625 -3.765625 C 3.859375 -3.128906 4.316406 -2.632812 4.890625 -2.28125 C 5.472656 -1.9375 6.117188 -1.765625 6.828125 -1.765625 C 7.535156 -1.765625 8.175781 -1.9375 8.75 -2.28125 C 9.332031 -2.632812 9.789062 -3.128906 10.125 -3.765625 C 10.46875 -4.398438 10.640625 -5.113281 10.640625 -5.90625 Z M 10.640625 -5.90625 "/></g></g></g><g fill="#f1efe7" fill-opacity="1"><g transform="translate(268.249819, 138.632016)"><g><path d="M 7.53125 -12.015625 C 8.550781 -12.015625 9.472656 -11.753906 10.296875 -11.234375 C 11.128906 -10.722656 11.78125 -10 12.25 -9.0625 C 12.726562 -8.132812 12.96875 -7.082031 12.96875 -5.90625 C 12.96875 -4.738281 12.726562 -3.691406 12.25 -2.765625 C 11.78125 -1.835938 11.128906 -1.109375 10.296875 -0.578125 C 9.472656 -0.0546875 8.566406 0.203125 7.578125 0.203125 C 6.796875 0.203125 6.066406 0.03125 5.390625 -0.3125 C 4.710938 -0.65625 4.164062 -1.078125 3.75 -1.578125 L 3.75 3.421875 C 3.75 3.722656 3.644531 3.976562 3.4375 4.1875 C 3.238281 4.40625 2.976562 4.515625 2.65625 4.515625 C 2.351562 4.515625 2.097656 4.410156 1.890625 4.203125 C 1.691406 4.003906 1.59375 3.742188 1.59375 3.421875 L 1.59375 -10.75 C 1.59375 -11.070312 1.691406 -11.335938 1.890625 -11.546875 C 2.085938 -11.753906 2.34375 -11.859375 2.65625 -11.859375 C 2.976562 -11.859375 3.238281 -11.753906 3.4375 -11.546875 C 3.644531 -11.335938 3.75 -11.070312 3.75 -10.75 L 3.75 -10.09375 C 4.101562 -10.625 4.625 -11.078125 5.3125 -11.453125 C 6.007812 -11.828125 6.75 -12.015625 7.53125 -12.015625 Z M 7.28125 -1.78125 C 7.96875 -1.78125 8.585938 -1.957031 9.140625 -2.3125 C 9.703125 -2.675781 10.132812 -3.171875 10.4375 -3.796875 C 10.75 -4.421875 10.90625 -5.125 10.90625 -5.90625 C 10.90625 -6.6875 10.75 -7.390625 10.4375 -8.015625 C 10.132812 -8.640625 9.703125 -9.128906 9.140625 -9.484375 C 8.585938 -9.847656 7.96875 -10.03125 7.28125 -10.03125 C 6.570312 -10.03125 5.9375 -9.851562 5.375 -9.5 C 4.820312 -9.144531 4.390625 -8.648438 4.078125 -8.015625 C 3.773438 -7.390625 3.625 -6.6875 3.625 -5.90625 C 3.625 -5.125 3.773438 -4.414062 4.078125 -3.78125 C 4.390625 -3.15625 4.820312 -2.664062 5.375 -2.3125 C 5.9375 -1.957031 6.570312 -1.78125 7.28125 -1.78125 Z M 7.28125 -1.78125 "/></g></g></g><g fill="#f1efe7" fill-opacity="1"><g transform="translate(296.782925, 138.632016)"><g><path d="M 11.96875 -6.359375 C 11.957031 -6.085938 11.84375 -5.859375 11.625 -5.671875 C 11.414062 -5.484375 11.171875 -5.390625 10.890625 -5.390625 L 2.953125 -5.390625 C 3.054688 -4.296875 3.472656 -3.414062 4.203125 -2.75 C 4.929688 -2.09375 5.820312 -1.765625 6.875 -1.765625 C 7.59375 -1.765625 8.175781 -1.867188 8.625 -2.078125 C 9.082031 -2.285156 9.484375 -2.554688 9.828125 -2.890625 C 10.054688 -3.023438 10.273438 -3.09375 10.484375 -3.09375 C 10.742188 -3.09375 10.957031 -3 11.125 -2.8125 C 11.300781 -2.632812 11.390625 -2.425781 11.390625 -2.1875 C 11.390625 -1.875 11.238281 -1.585938 10.9375 -1.328125 C 10.5 -0.890625 9.914062 -0.519531 9.1875 -0.21875 C 8.46875 0.0703125 7.734375 0.21875 6.984375 0.21875 C 5.765625 0.21875 4.691406 -0.0351562 3.765625 -0.546875 C 2.847656 -1.054688 2.132812 -1.769531 1.625 -2.6875 C 1.125 -3.601562 0.875 -4.640625 0.875 -5.796875 C 0.875 -7.054688 1.132812 -8.160156 1.65625 -9.109375 C 2.175781 -10.066406 2.859375 -10.800781 3.703125 -11.3125 C 4.554688 -11.820312 5.472656 -12.078125 6.453125 -12.078125 C 7.410156 -12.078125 8.3125 -11.828125 9.15625 -11.328125 C 10 -10.835938 10.675781 -10.15625 11.1875 -9.28125 C 11.695312 -8.414062 11.957031 -7.441406 11.96875 -6.359375 Z M 6.453125 -10.09375 C 5.609375 -10.09375 4.878906 -9.859375 4.265625 -9.390625 C 3.648438 -8.921875 3.242188 -8.1875 3.046875 -7.1875 L 9.6875 -7.1875 L 9.6875 -7.375 C 9.613281 -8.164062 9.257812 -8.816406 8.625 -9.328125 C 7.988281 -9.835938 7.265625 -10.09375 6.453125 -10.09375 Z M 6.453125 -10.09375 "/></g></g></g><g fill="#f1efe7" fill-opacity="1"><g transform="translate(324.324684, 138.632016)"><g><path d="M 7.484375 -12.078125 C 7.878906 -12.078125 8.21875 -11.972656 8.5 -11.765625 C 8.78125 -11.566406 8.921875 -11.320312 8.921875 -11.03125 C 8.921875 -10.664062 8.828125 -10.390625 8.640625 -10.203125 C 8.453125 -10.015625 8.222656 -9.921875 7.953125 -9.921875 C 7.816406 -9.921875 7.613281 -9.96875 7.34375 -10.0625 C 7.03125 -10.164062 6.785156 -10.21875 6.609375 -10.21875 C 6.140625 -10.21875 5.679688 -10.054688 5.234375 -9.734375 C 4.796875 -9.410156 4.4375 -8.960938 4.15625 -8.390625 C 3.882812 -7.828125 3.75 -7.203125 3.75 -6.515625 L 3.75 -1.078125 C 3.75 -0.773438 3.644531 -0.519531 3.4375 -0.3125 C 3.238281 -0.101562 2.976562 0 2.65625 0 C 2.34375 0 2.085938 -0.0976562 1.890625 -0.296875 C 1.691406 -0.503906 1.59375 -0.765625 1.59375 -1.078125 L 1.59375 -10.734375 C 1.59375 -11.035156 1.691406 -11.289062 1.890625 -11.5 C 2.097656 -11.707031 2.351562 -11.8125 2.65625 -11.8125 C 2.976562 -11.8125 3.238281 -11.707031 3.4375 -11.5 C 3.644531 -11.289062 3.75 -11.035156 3.75 -10.734375 L 3.75 -9.578125 C 4.070312 -10.316406 4.5625 -10.914062 5.21875 -11.375 C 5.882812 -11.832031 6.640625 -12.066406 7.484375 -12.078125 Z M 7.484375 -12.078125 "/></g></g></g></svg>